<svg xmlns="http://www.w3.org/2000/svg" viewBox="0 0 256 256" enable-background="new 0 0 256 256"><path fill="#888" d="M255 234.3c0 11.5-9.3 20.7-20.7 20.7h-212.6c-11.4 0-20.7-9.3-20.7-20.7v-212.6c0-11.4 9.3-20.7 20.7-20.7h212.5c11.5 0 20.7 9.3 20.7 20.7v212.6z"/><path fill="#fff" d="M168.2 48.4v25.4h-.4c-3.2-9.3-8.4-16.4-15.7-21.2-7.4-4.7-15.5-7.1-24.5-7.1-15.6.3-27.4 6.2-35.5 17.7-8.3 11.4-12.5 25.5-12.5 42.2 0 17.2 3.9 31.4 11.8 42.7 8 11.5 20 17.3 36.1 17.5 18.9-.2 32.3-9.4 40.2-27.7h.4v28c0 2.1-.1 5.3-.4 9.7-.6 4.5-2.1 9.4-4.5 14.7-2.5 4.9-6.4 9.1-11.9 12.6-5.4 3.8-13 5.7-22.7 5.9-9.4 0-17.3-2.4-23.7-7.2-6.6-4.7-10.5-12.3-11.6-22.9h-8.3c.8 13.7 5.3 23.5 13.4 29.4 7.9 5.6 17.9 8.4 30 8.4 12 0 21.3-2.2 28-6.6 6.6-4.2 11.4-9.5 14.2-15.8 2.9-6.3 4.6-12.3 5.2-18 .4-5.7.6-9.8.6-12.3v-115.4h-8.2zm-10.2 93.2c-6.6 10.6-16.8 16-30.5 16.2-12.9-.2-22.8-5.5-29.5-15.7-6.8-9.9-10.2-22.2-10.2-36.6 0-13.6 3.3-25.5 10-36 6.5-10.4 16.4-15.8 29.8-16.2 13.7.4 23.9 5.6 30.5 15.7 6.6 10.1 9.9 22.2 9.9 36.4-.1 14.2-3.4 26.3-10 36.2z"/></svg>