<svg xmlns="http://www.w3.org/2000/svg" viewBox="0 0 256 256" enable-background="new 0 0 256 256"><path fill="#DBD3CC" d="M255 234.3c0 11.5-9.3 20.7-20.7 20.7h-212.6c-11.4 0-20.7-9.3-20.7-20.7v-212.6c0-11.4 9.3-20.7 20.7-20.7h212.5c11.5 0 20.7 9.3 20.7 20.7v212.6z"/><path fill="#CF410F" d="M170.9 177.6l-15.2-25.1c2.8-9.7 5-20.5 5-31.2 0-1.4 0-2.8-.1-4.2-1.6-28-12.4-38-20.5-46.1-3.8-3.8-6.8-7.1-8.8-11.8 0-.1-.1-.2-.1-.2 1.4-.2 2.5-.6 3.4-1.1 1.5-.9 2.3-2.4 2.3-4.3l-.4-1c-.7-.7-2.6-1.1-5.7-1.2-.3-1.6-.2-3.2.1-5.4.1-1 .1-1 1.5-1.1h.3c1-.1 1.5-.6 1.7-1.1.5-1.1-.2-2.3-.6-3.1 0 0-.1-.3-.1-.2l-.2-.5c-2.2-5.4-3.3-9.1-3.3-11.2 0-2.7-.6-3.4-1.1-3.7-.4-.2-.9-.2-1.4 0-.3.2-1.2.7-1.2 3.7 0 1.4-.6 4.5-3.3 11.3l-.1.3-.1.3c-.3.6-.8 1.4-.8 2.2 0 .3.1.6.2.9.2.4.7.9 1.7 1.1h.3c1.4.2 1.4.2 1.5 1.1.2 1.2.3 2.3.3 3.3 0 .7-.1 1.4-.2 2.1-3.1.1-5.1.5-5.7 1.2l-.4 1c0 1.8.8 3.3 2.3 4.3.9.6 2 .9 3.4 1.1l-.1.3c-2 4.7-5.4 8.1-9.2 11.9-8.1 8.1-18.9 18.1-20.4 46-.1 1.4-.1 2.8-.1 4.2 0 10.6 2.2 21.5 5 31.2l-15.2 25.1-9.7 53.3h10.4l9.7-33.9 16.3-13.7.6.2c.5.2 1.2.4 1.8.6.3 1.7.6 3.5.8 4.6.2.9.6 2.9 8.2 3.4v38.8h8.6v-38.7c8-.5 8.4-2.6 8.6-3.4.2-1.1.5-2.9.8-4.6l1.8-.6.4-.2 16.2 13.6 9.7 33.9h10.4l-9.3-53.4z"/></svg>