<?xml version="1.0" encoding="utf-8"?>
<!-- Generator: Adobe Illustrator 17.1.0, SVG Export Plug-In . SVG Version: 6.00 Build 0)  -->
<!DOCTYPE svg PUBLIC "-//W3C//DTD SVG 1.1//EN" "http://www.w3.org/Graphics/SVG/1.1/DTD/svg11.dtd">
<svg version="1.1" id="Layer_1" xmlns="http://www.w3.org/2000/svg" xmlns:xlink="http://www.w3.org/1999/xlink" x="0px" y="0px"
	 viewBox="0 0 256 256" enable-background="new 0 0 256 256" xml:space="preserve">
<path fill="#DBD3CC" d="M255,234.3c0,11.5-9.3,20.7-20.7,20.7H21.7C10.3,255,1,245.7,1,234.3V21.7C1,10.3,10.3,1,21.7,1h212.5
	c11.5,0,20.7,9.3,20.7,20.7V234.3z"/>
<path fill="#CF410F" d="M170.9,177.6l-15.2-25.1c2.8-9.7,5-20.5,5-31.2c0-1.4,0-2.8-0.1-4.2c-1.6-28-12.4-38-20.5-46.1
	c-3.8-3.8-6.8-7.1-8.8-11.8c0-0.1-0.1-0.2-0.1-0.2c1.4-0.2,2.5-0.6,3.4-1.1c1.5-0.9,2.3-2.4,2.3-4.3l-0.4-1
	c-0.7-0.7-2.6-1.1-5.7-1.2c-0.3-1.6-0.2-3.2,0.1-5.4c0.1-1,0.1-1,1.5-1.1l0.3,0c1-0.1,1.5-0.6,1.7-1.1c0.5-1.1-0.2-2.3-0.6-3.1
	c0,0-0.1-0.3-0.1-0.2l-0.2-0.5c-2.2-5.4-3.3-9.1-3.3-11.2c0-2.7-0.6-3.4-1.1-3.7c-0.4-0.2-0.9-0.2-1.4,0c-0.3,0.2-1.2,0.7-1.2,3.7
	c0,1.4-0.6,4.5-3.3,11.3c0,0-0.1,0.3-0.1,0.3l-0.1,0.3c-0.3,0.6-0.8,1.4-0.8,2.2c0,0.3,0.1,0.6,0.2,0.9c0.2,0.4,0.7,0.9,1.7,1.1
	l0.3,0c1.4,0.2,1.4,0.2,1.5,1.1c0.2,1.2,0.3,2.3,0.3,3.3c0,0.7-0.1,1.4-0.2,2.1c-3.1,0.1-5.1,0.5-5.7,1.2l-0.4,1
	c0,1.8,0.8,3.3,2.3,4.3c0.9,0.6,2,0.9,3.4,1.1c0,0.1-0.1,0.2-0.1,0.3c-2,4.7-5.4,8.1-9.2,11.9c-8.1,8.1-18.9,18.1-20.4,46
	c-0.1,1.4-0.1,2.8-0.1,4.2c0,10.6,2.2,21.5,5,31.2l-15.2,25.1L75.9,231h10.4l9.7-33.9l16.3-13.7l0,0l0.6,0.2
	c0.5,0.2,1.2,0.4,1.8,0.6c0.3,1.7,0.6,3.5,0.8,4.6c0.2,0.9,0.6,2.9,8.2,3.4V231h8.6v-38.7c8-0.5,8.4-2.6,8.6-3.4
	c0.2-1.1,0.5-2.9,0.8-4.6c0.6-0.2,1.2-0.4,1.8-0.6l0.4-0.2l16.2,13.6l9.7,33.9h10.4L170.9,177.6z"/>
<g>
</g>
<g>
</g>
<g>
</g>
<g>
</g>
<g>
</g>
<g>
</g>
<g>
</g>
<g>
</g>
<g>
</g>
<g>
</g>
<g>
</g>
<g>
</g>
<g>
</g>
<g>
</g>
<g>
</g>
</svg>
