<?xml version="1.0" encoding="utf-8"?>
<!-- Generator: Adobe Illustrator 17.1.0, SVG Export Plug-In . SVG Version: 6.00 Build 0)  -->
<!DOCTYPE svg PUBLIC "-//W3C//DTD SVG 1.1//EN" "http://www.w3.org/Graphics/SVG/1.1/DTD/svg11.dtd">
<svg version="1.1" id="Layer_1" xmlns="http://www.w3.org/2000/svg" xmlns:xlink="http://www.w3.org/1999/xlink" x="0px" y="0px"
	 viewBox="0 0 256 256" enable-background="new 0 0 256 256" xml:space="preserve">
<path fill="#FF9801" d="M255,234.3c0,11.5-9.3,20.7-20.7,20.7H21.7C10.3,255,1,245.7,1,234.3V21.7C1,10.3,10.3,1,21.7,1h212.5
	c11.5,0,20.7,9.3,20.7,20.7V234.3z"/>
<g>
	<path fill-rule="evenodd" clip-rule="evenodd" fill="#FFFFFF" d="M188.8,181c-0.9,0-1.7,0.2-2.5,0.6c-0.9,0.4-1.9,0.8-2.7,1.2
		l-1.3,0.5l-1.7,0.7v0c-18.4,7.5-37.7,11.8-55.6,12.2c-0.6,0-1.3,0-1.9,0c-28.1,0-51-13-74.2-25.8c-0.8-0.4-1.6-0.6-2.4-0.6
		c-1,0-2.1,0.4-2.9,1.1c-0.8,0.7-1.2,1.8-1.2,2.9c0,1.4,0.8,2.7,1.8,3.5c21.7,18.9,45.5,36.4,77.5,36.4c0.6,0,1.3,0,1.9,0
		c20.4-0.5,43.4-7.4,61.2-18.6l0.1-0.1c2.3-1.4,4.7-3,6.9-4.8c1.4-1,2.3-2.6,2.3-4.3C194,183,191.5,181,188.8,181z"/>
	<path fill-rule="evenodd" clip-rule="evenodd" fill="#FFFFFF" d="M213.6,170.6L213.6,170.6c-0.1-1.8-0.4-3.1-1.2-4.3l-0.1-0.1
		l-0.1-0.1c-0.8-0.8-1.5-1.1-2.3-1.5c-2.3-0.9-5.8-1.4-9.9-1.4c-3,0-6.2,0.3-9.5,1l0-0.2l-3.3,1.1l-0.1,0l-1.9,0.6v0.1
		c-2.2,0.9-4.2,2.1-6,3.4c-1.1,0.9-2.1,2-2.2,3.7c0,0.9,0.5,2,1.2,2.7c0.8,0.7,1.7,0.9,2.5,0.9c0.2,0,0.4,0,0.5,0h0.2l0.1,0
		c1.6-0.3,4-0.6,6.7-1c2.4-0.3,4.9-0.4,7-0.4c1.5,0,2.9,0.1,3.9,0.3c0.5,0.1,0.8,0.2,1,0.3c0.1,0,0.1,0,0.1,0.1
		c0,0.1,0.1,0.5,0.1,0.9c0,1.8-0.8,5.2-1.8,8.5c-1,3.3-2.3,6.6-3.1,8.8c-0.2,0.5-0.3,1.1-0.3,1.7c0,0.9,0.3,1.9,1.1,2.6
		c0.7,0.7,1.7,1,2.5,1h0c1.2,0,2.2-0.5,3.1-1.2c8.4-7.5,11.3-19.5,11.4-26.3L213.6,170.6z"/>
	<path fill-rule="evenodd" clip-rule="evenodd" fill="#FFFFFF" d="M137.2,90c-4.9,0.4-10.6,0.7-16.3,1.5c-8.7,1.1-17.4,2.7-24.6,6.1
		c-14,5.7-23.4,17.8-23.4,35.5c0,22.3,14.4,33.7,32.5,33.7c6,0,11-0.8,15.5-1.9c7.2-2.3,13.2-6.4,20.4-14c4.2,5.7,5.3,8.3,12.5,14.4
		c1.9,0.8,3.8,0.8,5.3-0.4c4.5-3.8,12.5-10.6,16.6-14.4c1.9-1.5,1.5-3.8,0.4-5.7c-4.1-5.3-8.3-9.8-8.3-20v-34
		c0-14.4,1.1-27.6-9.4-37.4c-8.7-7.9-22.3-11-32.9-11h-4.5c-19.3,1.1-39.7,9.4-44.2,33.3c-0.8,3,1.5,4.2,3,4.5l21.2,2.7
		c2.3-0.4,3.4-2.3,3.8-4.1c1.9-8.3,8.7-12.5,16.3-13.2h1.5c4.5,0,9.5,1.9,12.1,5.7c3,4.5,2.6,10.6,2.6,15.9V90z M133,135
		c-2.6,5.3-7.2,8.7-12.1,9.8c-0.7,0-1.9,0.4-3,0.4c-8.3,0-13.2-6.4-13.2-15.9c0-12.1,7.2-17.8,16.3-20.4c4.9-1.1,10.6-1.5,16.3-1.5
		v4.5C137.2,120.6,137.5,127.4,133,135z"/>
</g>
<g>
</g>
<g>
</g>
<g>
</g>
<g>
</g>
<g>
</g>
<g>
</g>
<g>
</g>
<g>
</g>
<g>
</g>
<g>
</g>
<g>
</g>
<g>
</g>
<g>
</g>
<g>
</g>
<g>
</g>
</svg>
