<svg xmlns="http://www.w3.org/2000/svg" viewBox="0 0 256 256" enable-background="new 0 0 256 256"><path fill="#FF9801" d="M255 234.3c0 11.5-9.3 20.7-20.7 20.7h-212.6c-11.4 0-20.7-9.3-20.7-20.7v-212.6c0-11.4 9.3-20.7 20.7-20.7h212.5c11.5 0 20.7 9.3 20.7 20.7v212.6z"/><path d="M188.8 181c-.9 0-1.7.2-2.5.6-.9.4-1.9.8-2.7 1.2l-1.3.5-1.7.7c-18.4 7.5-37.7 11.8-55.6 12.2h-1.9c-28.1 0-51-13-74.2-25.8-.8-.4-1.6-.6-2.4-.6-1 0-2.1.4-2.9 1.1-.8.7-1.2 1.8-1.2 2.9 0 1.4.8 2.7 1.8 3.5 21.7 18.9 45.5 36.4 77.5 36.4h1.9c20.4-.5 43.4-7.4 61.2-18.6l.1-.1c2.3-1.4 4.7-3 6.9-4.8 1.4-1 2.3-2.6 2.3-4.3-.1-2.9-2.6-4.9-5.3-4.9zm24.8-10.4c-.1-1.8-.4-3.1-1.2-4.3l-.1-.1-.1-.1c-.8-.8-1.5-1.1-2.3-1.5-2.3-.9-5.8-1.4-9.9-1.4-3 0-6.2.3-9.5 1v-.2l-3.3 1.1h-.1l-1.9.6v.1c-2.2.9-4.2 2.1-6 3.4-1.1.9-2.1 2-2.2 3.7 0 .9.5 2 1.2 2.7.8.7 1.7.9 2.5.9h.8c1.6-.3 4-.6 6.7-1 2.4-.3 4.9-.4 7-.4 1.5 0 2.9.1 3.9.3.5.1.8.2 1 .3.1 0 .1 0 .1.1s.1.5.1.9c0 1.8-.8 5.2-1.8 8.5s-2.3 6.6-3.1 8.8c-.2.5-.3 1.1-.3 1.7 0 .9.3 1.9 1.1 2.6.7.7 1.7 1 2.5 1 1.2 0 2.2-.5 3.1-1.2 8.4-7.5 11.3-19.5 11.4-26.3l.4-1.2zm-76.4-80.6c-4.9.4-10.6.7-16.3 1.5-8.7 1.1-17.4 2.7-24.6 6.1-14 5.7-23.4 17.8-23.4 35.5 0 22.3 14.4 33.7 32.5 33.7 6 0 11-.8 15.5-1.9 7.2-2.3 13.2-6.4 20.4-14 4.2 5.7 5.3 8.3 12.5 14.4 1.9.8 3.8.8 5.3-.4 4.5-3.8 12.5-10.6 16.6-14.4 1.9-1.5 1.5-3.8.4-5.7-4.1-5.3-8.3-9.8-8.3-20v-34c0-14.4 1.1-27.6-9.4-37.4-8.7-7.9-22.3-11-32.9-11h-4.5c-19.3 1.1-39.7 9.4-44.2 33.3-.8 3 1.5 4.2 3 4.5l21.2 2.7c2.3-.4 3.4-2.3 3.8-4.1 1.9-8.3 8.7-12.5 16.3-13.2h1.5c4.5 0 9.5 1.9 12.1 5.7 3 4.5 2.6 10.6 2.6 15.9v2.8zm-4.2 45c-2.6 5.3-7.2 8.7-12.1 9.8-.7 0-1.9.4-3 .4-8.3 0-13.2-6.4-13.2-15.9 0-12.1 7.2-17.8 16.3-20.4 4.9-1.1 10.6-1.5 16.3-1.5v4.5c-.1 8.7.2 15.5-4.3 23.1z" fill-rule="evenodd" clip-rule="evenodd" fill="#fff"/></svg>