<?xml version="1.0" encoding="utf-8"?>
<!-- Generator: Adobe Illustrator 17.1.0, SVG Export Plug-In . SVG Version: 6.00 Build 0)  -->
<!DOCTYPE svg PUBLIC "-//W3C//DTD SVG 1.1//EN" "http://www.w3.org/Graphics/SVG/1.1/DTD/svg11.dtd">
<svg version="1.1" id="Layer_1" xmlns="http://www.w3.org/2000/svg" xmlns:xlink="http://www.w3.org/1999/xlink" x="0px" y="0px"
	 viewBox="0 0 256 256" enable-background="new 0 0 256 256" xml:space="preserve">
<path fill="#E5E0C2" d="M255,234.3c0,11.5-9.3,20.7-20.7,20.7H21.7C10.3,255,1,245.7,1,234.3V21.7C1,10.3,10.3,1,21.7,1h212.5
	c11.5,0,20.7,9.3,20.7,20.7V234.3z"/>
<path fill="#46311E" d="M168.2,48.4v25.4h-0.4c-3.2-9.3-8.4-16.4-15.7-21.2c-7.4-4.7-15.5-7.1-24.5-7.1
	c-15.6,0.3-27.4,6.2-35.5,17.7c-8.3,11.4-12.5,25.5-12.5,42.2c0,17.2,3.9,31.4,11.8,42.7c8,11.5,20,17.3,36.1,17.5
	c18.9-0.2,32.3-9.4,40.2-27.7h0.4v28c0,2.1-0.1,5.3-0.4,9.7c-0.6,4.5-2.1,9.4-4.5,14.7c-2.5,4.9-6.4,9.1-11.9,12.6
	c-5.4,3.8-13,5.7-22.7,5.9c-9.4,0-17.3-2.4-23.7-7.2c-6.6-4.7-10.5-12.3-11.6-22.9H85c0.8,13.7,5.3,23.5,13.4,29.4
	c7.9,5.6,17.9,8.4,30,8.4c12,0,21.3-2.2,28-6.6c6.6-4.2,11.4-9.5,14.2-15.8c2.9-6.3,4.6-12.3,5.2-18c0.4-5.7,0.6-9.8,0.6-12.3V48.4
	H168.2z M158,141.6c-6.6,10.6-16.8,16-30.5,16.2c-12.9-0.2-22.8-5.5-29.5-15.7c-6.8-9.9-10.2-22.2-10.2-36.6c0-13.6,3.3-25.5,10-36
	c6.5-10.4,16.4-15.8,29.8-16.2c13.7,0.4,23.9,5.6,30.5,15.7c6.6,10.1,9.9,22.2,9.9,36.4C167.9,119.6,164.6,131.7,158,141.6z"/>
<g>
</g>
<g>
</g>
<g>
</g>
<g>
</g>
<g>
</g>
<g>
</g>
<g>
</g>
<g>
</g>
<g>
</g>
<g>
</g>
<g>
</g>
<g>
</g>
<g>
</g>
<g>
</g>
<g>
</g>
</svg>
